# xmcd CD database file
#
# Track frame offsets:
#	150
#	16415
#	29480
#	49387
#	70290
#	89332
#	106272
#	118147
#	143247
#	158427
#
# Disc length: 2426 seconds
#
# Revision: 2
# Processed by: cddbd v1.5PL3 Copyright (c) Steve Scherf et al.
# Submitted via: CDex 1.51
#
DISCID=8509780a
DTITLE=矢沢永吉 - Kiss Me Please
DYEAR=1979
DGENRE=Japanese Rock
TTITLE0=バイ・バイ・サンキュー・ガール
TTITLE1=いちいち憎んで
TTITLE2=ワン・ナイト・ショー
TTITLE3=ラスティン・ガール
TTITLE4=Mr. T
TTITLE5=アップタイト
TTITLE6=馬鹿もほどほどに
TTITLE7=天使たちの場所
TTITLE8=I Say Good-Bye, So Good-Bye
TTITLE9=過ぎてゆくすべてに
EXTD=YEAR: 1979
EXTT0=
EXTT1=
EXTT2=
EXTT3=
EXTT4=
EXTT5=
EXTT6=
EXTT7=
EXTT8=
EXTT9=
PLAYORDER=
